<?xml version="1.0" encoding="utf-8"?>
<!-- Generator: Adobe Illustrator 27.5.0, SVG Export Plug-In . SVG Version: 6.00 Build 0)  -->
<svg version="1.1" id="Layer_1" xmlns="http://www.w3.org/2000/svg" xmlns:xlink="http://www.w3.org/1999/xlink" x="0px" y="0px"
	 viewBox="0 0 1450 400" style="enable-background:new 0 0 1450 400;" xml:space="preserve">
<style type="text/css">
	.st0{fill:none;}
	.st1{fill:#FFFFFF;}
</style>
<rect x="-24.2" y="-15.3" class="st0" width="1357.6" height="420.9"/>
<g id="BigFix">
	<path class="st1" d="M502.8,107.4h83.9c21.4,0,38.2,5.9,48.9,16.6c8.3,8.3,12.6,18.4,12.6,31v0.5c0,22.4-12.8,34.5-26.7,41.7
		c21.9,7.5,37.1,20,37.1,45.4v0.5c0,33.4-27.5,51.3-69.2,51.3h-86.6V107.4z M615.3,160.3c0-14.7-11.8-23.8-32.9-23.8h-47.3v49.7H580
		c21.1,0,35.3-8.3,35.3-25.4L615.3,160.3z M587.2,214h-52.1v51.3h54.5c22.4,0,36.1-8.8,36.1-25.7v-0.5
		C625.7,223.3,613.1,214,587.2,214L587.2,214z"/>
	<path class="st1" d="M692.5,100.9h34.7v30.8h-34.7V100.9z M693.8,153.3h32.3v141.1h-32.3V153.3z"/>
	<path class="st1" d="M768.1,320.8l12-24.3c15.2,9.4,31,15,50.3,15c28.9,0,44.6-15,44.6-43.3v-10.9c-11.8,15.2-26.5,25.9-49.7,25.9
		c-33.1,0-64.1-24.6-64.1-66v-0.5c0-41.7,31.3-66.3,64.1-66.3c23.8,0,38.5,11,49.4,24v-21.1h32.3v112.2c0,23.8-6.2,41.4-17.9,53.2
		c-12.8,12.8-32.6,19-58,19C808,337.7,786.3,331.8,768.1,320.8z M875.3,216.9v-0.5c0-23-19-38.7-41.4-38.7s-40.1,15.5-40.1,38.7v0.5
		c0,23,17.9,38.7,40.1,38.7C856.3,255.6,875.3,239.9,875.3,216.9z"/>
	<path class="st1" d="M951.4,107.4h139.2v29.9H984.3v51h94.4v29.9h-94.4v76.2h-32.9L951.4,107.4z"/>
	<path class="st1" d="M1123.5,100.9h34.7v30.8h-34.7V100.9z M1124.9,153.3h32.3v141.1h-32.3V153.3z"/>
	<path class="st1" d="M1256.8,200.6l32.6-47.3h34.5l-49.7,68.9l51.8,72.1h-35.3l-34.7-50.2l-34.5,50.2h-34.5l51.6-71.9l-49.7-69.2
		h35.3L1256.8,200.6z"/>
	<path id="Path" class="st1" d="M209.7,7.6c-13.2-0.1-26.4,1.3-39.3,4.3v86.6c12.5-4.7,25.9-7.1,39.3-7
		c61.1,0.1,110.5,49.7,110.4,110.8s-49.7,110.5-110.8,110.4c-58.4-0.1-106.7-45.6-110.2-104l1-167C12.4,102.2-9.6,222.3,50.9,310
		s180.6,109.6,268.3,49.1s109.6-180.6,49.1-268.3C332.3,38.7,273,7.6,209.7,7.6z"/>
	<circle id="Oval-2" class="st1" cx="210.1" cy="201.5" r="51"/>
</g>
</svg>
